{
	"asset":{
		"generator":"Khronos glTF Blender I/O v4.2.57",
		"version":"2.0"
	},
	"extensionsUsed":[
		"KHR_materials_clearcoat"
	],
	"scene":0,
	"scenes":[
		{
			"name":"Scene",
			"nodes":[
				0,
				1
			]
		}
	],
	"nodes":[
		{
			"mesh":0,
			"name":"HL",
			"translation":[
				2.3499958515167236,
				0.2749999761581421,
				0.6499999761581421
			]
		},
		{
			"mesh":1,
			"name":"HR",
			"scale":[
				0.011999999172985554,
				0.011999999172985554,
				0.012000000104308128
			],
			"translation":[
				2.3499999046325684,
				0.2750000059604645,
				-0.6499999761581421
			]
		}
	],
	"materials":[
		{
			"doubleSided":true,
			"extensions":{
				"KHR_materials_clearcoat":{
					"clearcoatFactor":0.800000011920929,
					"clearcoatRoughnessFactor":0.5
				}
			},
			"name":"Radkappen",
			"pbrMetallicRoughness":{
				"baseColorFactor":[
					0.031901367008686066,
					0.04373311996459961,
					0.0630054697394371,
					1
				],
				"metallicFactor":0.6000000238418579,
				"roughnessFactor":0.019999999552965164
			}
		},
		{
			"doubleSided":true,
			"extensions":{
				"KHR_materials_clearcoat":{
					"clearcoatFactor":0.75
				}
			},
			"name":"EX_Lack_Akzent-02",
			"pbrMetallicRoughness":{
				"baseColorFactor":[
					0.6939884424209595,
					0.6938414573669434,
					0.6938217282295227,
					1
				],
				"metallicFactor":0.5,
				"roughnessFactor":0.019999999552965164
			}
		},
		{
			"doubleSided":true,
			"name":"Reifen_Felge",
			"pbrMetallicRoughness":{
				"baseColorFactor":[
					0.11600957810878754,
					0.11600957810878754,
					0.11600957810878754,
					1
				],
				"roughnessFactor":0.30000001192092896
			}
		},
		{
			"doubleSided":true,
			"extensions":{
				"KHR_materials_clearcoat":{
					"clearcoatFactor":0.20000000298023224,
					"clearcoatRoughnessFactor":0.5
				}
			},
			"name":"Reifen",
			"pbrMetallicRoughness":{
				"baseColorFactor":[
					0.0037352386862039566,
					0.0037352386862039566,
					0.0037352386862039566,
					1
				],
				"metallicFactor":0
			}
		}
	],
	"meshes":[
		{
			"name":"TIRE_4.004",
			"primitives":[
				{
					"attributes":{
						"POSITION":0,
						"NORMAL":1,
						"TEXCOORD_0":2,
						"TEXCOORD_1":3,
						"COLOR_0":4,
						"COLOR_1":5
					},
					"indices":6,
					"material":0
				},
				{
					"attributes":{
						"POSITION":7,
						"NORMAL":8,
						"TEXCOORD_0":9,
						"TEXCOORD_1":10,
						"COLOR_0":11,
						"COLOR_1":12
					},
					"indices":13,
					"material":1
				},
				{
					"attributes":{
						"POSITION":14,
						"NORMAL":15,
						"TEXCOORD_0":16,
						"TEXCOORD_1":17,
						"COLOR_0":18,
						"COLOR_1":19
					},
					"indices":20,
					"material":2
				},
				{
					"attributes":{
						"POSITION":21,
						"NORMAL":22,
						"TEXCOORD_0":23,
						"TEXCOORD_1":24,
						"COLOR_0":25,
						"COLOR_1":26
					},
					"indices":27,
					"material":3
				}
			]
		},
		{
			"name":"TIRE_4.003",
			"primitives":[
				{
					"attributes":{
						"POSITION":28,
						"NORMAL":29,
						"TEXCOORD_0":30,
						"TEXCOORD_1":31,
						"COLOR_0":32,
						"COLOR_1":33
					},
					"indices":34,
					"material":0
				},
				{
					"attributes":{
						"POSITION":35,
						"NORMAL":36,
						"TEXCOORD_0":37,
						"TEXCOORD_1":38,
						"COLOR_0":39,
						"COLOR_1":40
					},
					"indices":41,
					"material":1
				},
				{
					"attributes":{
						"POSITION":42,
						"NORMAL":43,
						"TEXCOORD_0":44,
						"TEXCOORD_1":45,
						"COLOR_0":46,
						"COLOR_1":47
					},
					"indices":48,
					"material":2
				},
				{
					"attributes":{
						"POSITION":49,
						"NORMAL":50,
						"TEXCOORD_0":51,
						"TEXCOORD_1":52,
						"COLOR_0":53,
						"COLOR_1":54
					},
					"indices":27,
					"material":3
				}
			]
		}
	],
	"accessors":[
		{
			"bufferView":0,
			"componentType":5126,
			"count":11455,
			"max":[
				0.21705536544322968,
				0.21587197482585907,
				0.09787207096815109
			],
			"min":[
				-0.21662591397762299,
				-0.21780948340892792,
				0.02982833795249462
			],
			"type":"VEC3"
		},
		{
			"bufferView":1,
			"componentType":5126,
			"count":11455,
			"type":"VEC3"
		},
		{
			"bufferView":2,
			"componentType":5126,
			"count":11455,
			"type":"VEC2"
		},
		{
			"bufferView":3,
			"componentType":5126,
			"count":11455,
			"type":"VEC2"
		},
		{
			"bufferView":4,
			"componentType":5121,
			"count":11455,
			"normalized":true,
			"type":"VEC4"
		},
		{
			"bufferView":5,
			"componentType":5126,
			"count":11455,
			"type":"VEC3"
		},
		{
			"bufferView":6,
			"componentType":5123,
			"count":11739,
			"type":"SCALAR"
		},
		{
			"bufferView":7,
			"componentType":5126,
			"count":4776,
			"max":[
				0.17703232169151306,
				0.19134071469306946,
				0.10147027671337128
			],
			"min":[
				-0.1834738552570343,
				-0.13374945521354675,
				0.08208370953798294
			],
			"type":"VEC3"
		},
		{
			"bufferView":8,
			"componentType":5126,
			"count":4776,
			"type":"VEC3"
		},
		{
			"bufferView":9,
			"componentType":5126,
			"count":4776,
			"type":"VEC2"
		},
		{
			"bufferView":10,
			"componentType":5126,
			"count":4776,
			"type":"VEC2"
		},
		{
			"bufferView":11,
			"componentType":5121,
			"count":4776,
			"normalized":true,
			"type":"VEC4"
		},
		{
			"bufferView":12,
			"componentType":5126,
			"count":4776,
			"type":"VEC3"
		},
		{
			"bufferView":13,
			"componentType":5123,
			"count":4818,
			"type":"SCALAR"
		},
		{
			"bufferView":14,
			"componentType":5126,
			"count":17245,
			"max":[
				0.1899261474609375,
				0.1884172260761261,
				0.07875494658946991
			],
			"min":[
				-0.19007372856140137,
				-0.19106195867061615,
				-0.07524508982896805
			],
			"type":"VEC3"
		},
		{
			"bufferView":15,
			"componentType":5126,
			"count":17245,
			"type":"VEC3"
		},
		{
			"bufferView":16,
			"componentType":5126,
			"count":17245,
			"type":"VEC2"
		},
		{
			"bufferView":17,
			"componentType":5126,
			"count":17245,
			"type":"VEC2"
		},
		{
			"bufferView":18,
			"componentType":5121,
			"count":17245,
			"normalized":true,
			"type":"VEC4"
		},
		{
			"bufferView":19,
			"componentType":5126,
			"count":17245,
			"type":"VEC3"
		},
		{
			"bufferView":20,
			"componentType":5123,
			"count":19110,
			"type":"SCALAR"
		},
		{
			"bufferView":21,
			"componentType":5126,
			"count":43024,
			"max":[
				0.3176513612270355,
				0.31771835684776306,
				0.09759611636400223
			],
			"min":[
				-0.3176964521408081,
				-0.3176264762878418,
				-0.10252992063760757
			],
			"type":"VEC3"
		},
		{
			"bufferView":22,
			"componentType":5126,
			"count":43024,
			"type":"VEC3"
		},
		{
			"bufferView":23,
			"componentType":5126,
			"count":43024,
			"type":"VEC2"
		},
		{
			"bufferView":24,
			"componentType":5126,
			"count":43024,
			"type":"VEC2"
		},
		{
			"bufferView":25,
			"componentType":5121,
			"count":43024,
			"normalized":true,
			"type":"VEC4"
		},
		{
			"bufferView":26,
			"componentType":5126,
			"count":43024,
			"type":"VEC3"
		},
		{
			"bufferView":27,
			"componentType":5123,
			"count":110592,
			"type":"SCALAR"
		},
		{
			"bufferView":28,
			"componentType":5126,
			"count":7393,
			"max":[
				18.051809310913086,
				17.989316940307617,
				-4.026549816131592
			],
			"min":[
				-18.088298797607422,
				-18.15081024169922,
				-9.696861267089844
			],
			"type":"VEC3"
		},
		{
			"bufferView":29,
			"componentType":5126,
			"count":7393,
			"type":"VEC3"
		},
		{
			"bufferView":30,
			"componentType":5126,
			"count":7393,
			"type":"VEC2"
		},
		{
			"bufferView":31,
			"componentType":5126,
			"count":7393,
			"type":"VEC2"
		},
		{
			"bufferView":32,
			"componentType":5121,
			"count":7393,
			"normalized":true,
			"type":"VEC4"
		},
		{
			"bufferView":33,
			"componentType":5126,
			"count":7393,
			"type":"VEC3"
		},
		{
			"bufferView":34,
			"componentType":5123,
			"count":11739,
			"type":"SCALAR"
		},
		{
			"bufferView":35,
			"componentType":5126,
			"count":4435,
			"max":[
				15.289137840270996,
				15.94504451751709,
				-8.381163597106934
			],
			"min":[
				-14.753045082092285,
				-11.145807266235352,
				-9.99671459197998
			],
			"type":"VEC3"
		},
		{
			"bufferView":36,
			"componentType":5126,
			"count":4435,
			"type":"VEC3"
		},
		{
			"bufferView":37,
			"componentType":5126,
			"count":4435,
			"type":"VEC2"
		},
		{
			"bufferView":38,
			"componentType":5126,
			"count":4435,
			"type":"VEC2"
		},
		{
			"bufferView":39,
			"componentType":5121,
			"count":4435,
			"normalized":true,
			"type":"VEC4"
		},
		{
			"bufferView":40,
			"componentType":5126,
			"count":4435,
			"type":"VEC3"
		},
		{
			"bufferView":41,
			"componentType":5123,
			"count":4818,
			"type":"SCALAR"
		},
		{
			"bufferView":42,
			"componentType":5126,
			"count":9761,
			"max":[
				15.827264785766602,
				15.70141887664795,
				4.729567050933838
			],
			"min":[
				-15.815637588500977,
				-15.92185115814209,
				-8.103769302368164
			],
			"type":"VEC3"
		},
		{
			"bufferView":43,
			"componentType":5126,
			"count":9761,
			"type":"VEC3"
		},
		{
			"bufferView":44,
			"componentType":5126,
			"count":9761,
			"type":"VEC2"
		},
		{
			"bufferView":45,
			"componentType":5126,
			"count":9761,
			"type":"VEC2"
		},
		{
			"bufferView":46,
			"componentType":5121,
			"count":9761,
			"normalized":true,
			"type":"VEC4"
		},
		{
			"bufferView":47,
			"componentType":5126,
			"count":9761,
			"type":"VEC3"
		},
		{
			"bufferView":48,
			"componentType":5123,
			"count":19110,
			"type":"SCALAR"
		},
		{
			"bufferView":49,
			"componentType":5126,
			"count":43024,
			"max":[
				26.474374771118164,
				26.476516723632812,
				6.877488136291504
			],
			"min":[
				-26.471288681030273,
				-26.46889877319336,
				-9.799681663513184
			],
			"type":"VEC3"
		},
		{
			"bufferView":50,
			"componentType":5126,
			"count":43024,
			"type":"VEC3"
		},
		{
			"bufferView":51,
			"componentType":5126,
			"count":43024,
			"type":"VEC2"
		},
		{
			"bufferView":52,
			"componentType":5126,
			"count":43024,
			"type":"VEC2"
		},
		{
			"bufferView":53,
			"componentType":5121,
			"count":43024,
			"normalized":true,
			"type":"VEC4"
		},
		{
			"bufferView":54,
			"componentType":5126,
			"count":43024,
			"type":"VEC3"
		}
	],
	"bufferViews":[
		{
			"buffer":0,
			"byteLength":137460,
			"byteOffset":0,
			"target":34962
		},
		{
			"buffer":0,
			"byteLength":137460,
			"byteOffset":137460,
			"target":34962
		},
		{
			"buffer":0,
			"byteLength":91640,
			"byteOffset":274920,
			"target":34962
		},
		{
			"buffer":0,
			"byteLength":91640,
			"byteOffset":366560,
			"target":34962
		},
		{
			"buffer":0,
			"byteLength":45820,
			"byteOffset":458200,
			"target":34962
		},
		{
			"buffer":0,
			"byteLength":137460,
			"byteOffset":504020,
			"target":34962
		},
		{
			"buffer":0,
			"byteLength":23478,
			"byteOffset":641480,
			"target":34963
		},
		{
			"buffer":0,
			"byteLength":57312,
			"byteOffset":664960,
			"target":34962
		},
		{
			"buffer":0,
			"byteLength":57312,
			"byteOffset":722272,
			"target":34962
		},
		{
			"buffer":0,
			"byteLength":38208,
			"byteOffset":779584,
			"target":34962
		},
		{
			"buffer":0,
			"byteLength":38208,
			"byteOffset":817792,
			"target":34962
		},
		{
			"buffer":0,
			"byteLength":19104,
			"byteOffset":856000,
			"target":34962
		},
		{
			"buffer":0,
			"byteLength":57312,
			"byteOffset":875104,
			"target":34962
		},
		{
			"buffer":0,
			"byteLength":9636,
			"byteOffset":932416,
			"target":34963
		},
		{
			"buffer":0,
			"byteLength":206940,
			"byteOffset":942052,
			"target":34962
		},
		{
			"buffer":0,
			"byteLength":206940,
			"byteOffset":1148992,
			"target":34962
		},
		{
			"buffer":0,
			"byteLength":137960,
			"byteOffset":1355932,
			"target":34962
		},
		{
			"buffer":0,
			"byteLength":137960,
			"byteOffset":1493892,
			"target":34962
		},
		{
			"buffer":0,
			"byteLength":68980,
			"byteOffset":1631852,
			"target":34962
		},
		{
			"buffer":0,
			"byteLength":206940,
			"byteOffset":1700832,
			"target":34962
		},
		{
			"buffer":0,
			"byteLength":38220,
			"byteOffset":1907772,
			"target":34963
		},
		{
			"buffer":0,
			"byteLength":516288,
			"byteOffset":1945992,
			"target":34962
		},
		{
			"buffer":0,
			"byteLength":516288,
			"byteOffset":2462280,
			"target":34962
		},
		{
			"buffer":0,
			"byteLength":344192,
			"byteOffset":2978568,
			"target":34962
		},
		{
			"buffer":0,
			"byteLength":344192,
			"byteOffset":3322760,
			"target":34962
		},
		{
			"buffer":0,
			"byteLength":172096,
			"byteOffset":3666952,
			"target":34962
		},
		{
			"buffer":0,
			"byteLength":516288,
			"byteOffset":3839048,
			"target":34962
		},
		{
			"buffer":0,
			"byteLength":221184,
			"byteOffset":4355336,
			"target":34963
		},
		{
			"buffer":0,
			"byteLength":88716,
			"byteOffset":4576520,
			"target":34962
		},
		{
			"buffer":0,
			"byteLength":88716,
			"byteOffset":4665236,
			"target":34962
		},
		{
			"buffer":0,
			"byteLength":59144,
			"byteOffset":4753952,
			"target":34962
		},
		{
			"buffer":0,
			"byteLength":59144,
			"byteOffset":4813096,
			"target":34962
		},
		{
			"buffer":0,
			"byteLength":29572,
			"byteOffset":4872240,
			"target":34962
		},
		{
			"buffer":0,
			"byteLength":88716,
			"byteOffset":4901812,
			"target":34962
		},
		{
			"buffer":0,
			"byteLength":23478,
			"byteOffset":4990528,
			"target":34963
		},
		{
			"buffer":0,
			"byteLength":53220,
			"byteOffset":5014008,
			"target":34962
		},
		{
			"buffer":0,
			"byteLength":53220,
			"byteOffset":5067228,
			"target":34962
		},
		{
			"buffer":0,
			"byteLength":35480,
			"byteOffset":5120448,
			"target":34962
		},
		{
			"buffer":0,
			"byteLength":35480,
			"byteOffset":5155928,
			"target":34962
		},
		{
			"buffer":0,
			"byteLength":17740,
			"byteOffset":5191408,
			"target":34962
		},
		{
			"buffer":0,
			"byteLength":53220,
			"byteOffset":5209148,
			"target":34962
		},
		{
			"buffer":0,
			"byteLength":9636,
			"byteOffset":5262368,
			"target":34963
		},
		{
			"buffer":0,
			"byteLength":117132,
			"byteOffset":5272004,
			"target":34962
		},
		{
			"buffer":0,
			"byteLength":117132,
			"byteOffset":5389136,
			"target":34962
		},
		{
			"buffer":0,
			"byteLength":78088,
			"byteOffset":5506268,
			"target":34962
		},
		{
			"buffer":0,
			"byteLength":78088,
			"byteOffset":5584356,
			"target":34962
		},
		{
			"buffer":0,
			"byteLength":39044,
			"byteOffset":5662444,
			"target":34962
		},
		{
			"buffer":0,
			"byteLength":117132,
			"byteOffset":5701488,
			"target":34962
		},
		{
			"buffer":0,
			"byteLength":38220,
			"byteOffset":5818620,
			"target":34963
		},
		{
			"buffer":0,
			"byteLength":516288,
			"byteOffset":5856840,
			"target":34962
		},
		{
			"buffer":0,
			"byteLength":516288,
			"byteOffset":6373128,
			"target":34962
		},
		{
			"buffer":0,
			"byteLength":344192,
			"byteOffset":6889416,
			"target":34962
		},
		{
			"buffer":0,
			"byteLength":344192,
			"byteOffset":7233608,
			"target":34962
		},
		{
			"buffer":0,
			"byteLength":172096,
			"byteOffset":7577800,
			"target":34962
		},
		{
			"buffer":0,
			"byteLength":516288,
			"byteOffset":7749896,
			"target":34962
		}
	],
	"buffers":[
		{
			"byteLength":8266184,
			"uri":"241126_CAB_Tires_Back.bin"
		}
	]
}
