{
	"asset":{
		"generator":"Khronos glTF Blender I/O v4.2.57",
		"version":"2.0"
	},
	"extensionsUsed":[
		"KHR_materials_clearcoat"
	],
	"scene":0,
	"scenes":[
		{
			"name":"Scene",
			"nodes":[
				0
			]
		}
	],
	"nodes":[
		{
			"mesh":0,
			"name":"VR",
			"scale":[
				0.011999999172985554,
				0.011999999172985554,
				0.012000000104308128
			],
			"translation":[
				0,
				0.2750000059604645,
				-0.6499999761581421
			]
		}
	],
	"materials":[
		{
			"doubleSided":true,
			"extensions":{
				"KHR_materials_clearcoat":{
					"clearcoatFactor":0.800000011920929,
					"clearcoatRoughnessFactor":0.5
				}
			},
			"name":"Radkappen",
			"pbrMetallicRoughness":{
				"baseColorFactor":[
					0.031901367008686066,
					0.04373311996459961,
					0.0630054697394371,
					1
				],
				"metallicFactor":0.6000000238418579,
				"roughnessFactor":0.019999999552965164
			}
		},
		{
			"doubleSided":true,
			"extensions":{
				"KHR_materials_clearcoat":{
					"clearcoatFactor":0.75
				}
			},
			"name":"EX_Lack_Akzent-02",
			"pbrMetallicRoughness":{
				"baseColorFactor":[
					0.6939884424209595,
					0.6938414573669434,
					0.6938217282295227,
					1
				],
				"metallicFactor":0.5,
				"roughnessFactor":0.019999999552965164
			}
		},
		{
			"doubleSided":true,
			"name":"Reifen_Felge",
			"pbrMetallicRoughness":{
				"baseColorFactor":[
					0.11600957810878754,
					0.11600957810878754,
					0.11600957810878754,
					1
				],
				"roughnessFactor":0.30000001192092896
			}
		},
		{
			"doubleSided":true,
			"extensions":{
				"KHR_materials_clearcoat":{
					"clearcoatFactor":0.20000000298023224,
					"clearcoatRoughnessFactor":0.5
				}
			},
			"name":"Reifen",
			"pbrMetallicRoughness":{
				"baseColorFactor":[
					0.0037352386862039566,
					0.0037352386862039566,
					0.0037352386862039566,
					1
				],
				"metallicFactor":0
			}
		}
	],
	"meshes":[
		{
			"name":"TIRE_4.001",
			"primitives":[
				{
					"attributes":{
						"POSITION":0,
						"NORMAL":1,
						"TEXCOORD_0":2,
						"TEXCOORD_1":3,
						"COLOR_0":4,
						"COLOR_1":5
					},
					"indices":6,
					"material":0
				},
				{
					"attributes":{
						"POSITION":7,
						"NORMAL":8,
						"TEXCOORD_0":9,
						"TEXCOORD_1":10,
						"COLOR_0":11,
						"COLOR_1":12
					},
					"indices":13,
					"material":1
				},
				{
					"attributes":{
						"POSITION":14,
						"NORMAL":15,
						"TEXCOORD_0":16,
						"TEXCOORD_1":17,
						"COLOR_0":18,
						"COLOR_1":19
					},
					"indices":20,
					"material":2
				},
				{
					"attributes":{
						"POSITION":21,
						"NORMAL":22,
						"TEXCOORD_0":23,
						"TEXCOORD_1":24,
						"COLOR_0":25,
						"COLOR_1":26
					},
					"indices":27,
					"material":3
				}
			]
		}
	],
	"accessors":[
		{
			"bufferView":0,
			"componentType":5126,
			"count":7393,
			"max":[
				18.051809310913086,
				17.989316940307617,
				-4.026549816131592
			],
			"min":[
				-18.088298797607422,
				-18.15081024169922,
				-9.696861267089844
			],
			"type":"VEC3"
		},
		{
			"bufferView":1,
			"componentType":5126,
			"count":7393,
			"type":"VEC3"
		},
		{
			"bufferView":2,
			"componentType":5126,
			"count":7393,
			"type":"VEC2"
		},
		{
			"bufferView":3,
			"componentType":5126,
			"count":7393,
			"type":"VEC2"
		},
		{
			"bufferView":4,
			"componentType":5121,
			"count":7393,
			"normalized":true,
			"type":"VEC4"
		},
		{
			"bufferView":5,
			"componentType":5126,
			"count":7393,
			"type":"VEC3"
		},
		{
			"bufferView":6,
			"componentType":5123,
			"count":11739,
			"type":"SCALAR"
		},
		{
			"bufferView":7,
			"componentType":5126,
			"count":4435,
			"max":[
				15.289137840270996,
				15.94504451751709,
				-8.381163597106934
			],
			"min":[
				-14.753045082092285,
				-11.145807266235352,
				-9.99671459197998
			],
			"type":"VEC3"
		},
		{
			"bufferView":8,
			"componentType":5126,
			"count":4435,
			"type":"VEC3"
		},
		{
			"bufferView":9,
			"componentType":5126,
			"count":4435,
			"type":"VEC2"
		},
		{
			"bufferView":10,
			"componentType":5126,
			"count":4435,
			"type":"VEC2"
		},
		{
			"bufferView":11,
			"componentType":5121,
			"count":4435,
			"normalized":true,
			"type":"VEC4"
		},
		{
			"bufferView":12,
			"componentType":5126,
			"count":4435,
			"type":"VEC3"
		},
		{
			"bufferView":13,
			"componentType":5123,
			"count":4818,
			"type":"SCALAR"
		},
		{
			"bufferView":14,
			"componentType":5126,
			"count":9755,
			"max":[
				15.827227592468262,
				15.70141887664795,
				4.729567050933838
			],
			"min":[
				-15.815674781799316,
				-15.92185115814209,
				-8.103769302368164
			],
			"type":"VEC3"
		},
		{
			"bufferView":15,
			"componentType":5126,
			"count":9755,
			"type":"VEC3"
		},
		{
			"bufferView":16,
			"componentType":5126,
			"count":9755,
			"type":"VEC2"
		},
		{
			"bufferView":17,
			"componentType":5126,
			"count":9755,
			"type":"VEC2"
		},
		{
			"bufferView":18,
			"componentType":5121,
			"count":9755,
			"normalized":true,
			"type":"VEC4"
		},
		{
			"bufferView":19,
			"componentType":5126,
			"count":9755,
			"type":"VEC3"
		},
		{
			"bufferView":20,
			"componentType":5123,
			"count":19110,
			"type":"SCALAR"
		},
		{
			"bufferView":21,
			"componentType":5126,
			"count":43024,
			"max":[
				26.474390029907227,
				26.476516723632812,
				6.877488136291504
			],
			"min":[
				-26.47127342224121,
				-26.46889877319336,
				-9.799681663513184
			],
			"type":"VEC3"
		},
		{
			"bufferView":22,
			"componentType":5126,
			"count":43024,
			"type":"VEC3"
		},
		{
			"bufferView":23,
			"componentType":5126,
			"count":43024,
			"type":"VEC2"
		},
		{
			"bufferView":24,
			"componentType":5126,
			"count":43024,
			"type":"VEC2"
		},
		{
			"bufferView":25,
			"componentType":5121,
			"count":43024,
			"normalized":true,
			"type":"VEC4"
		},
		{
			"bufferView":26,
			"componentType":5126,
			"count":43024,
			"type":"VEC3"
		},
		{
			"bufferView":27,
			"componentType":5123,
			"count":110592,
			"type":"SCALAR"
		}
	],
	"bufferViews":[
		{
			"buffer":0,
			"byteLength":88716,
			"byteOffset":0,
			"target":34962
		},
		{
			"buffer":0,
			"byteLength":88716,
			"byteOffset":88716,
			"target":34962
		},
		{
			"buffer":0,
			"byteLength":59144,
			"byteOffset":177432,
			"target":34962
		},
		{
			"buffer":0,
			"byteLength":59144,
			"byteOffset":236576,
			"target":34962
		},
		{
			"buffer":0,
			"byteLength":29572,
			"byteOffset":295720,
			"target":34962
		},
		{
			"buffer":0,
			"byteLength":88716,
			"byteOffset":325292,
			"target":34962
		},
		{
			"buffer":0,
			"byteLength":23478,
			"byteOffset":414008,
			"target":34963
		},
		{
			"buffer":0,
			"byteLength":53220,
			"byteOffset":437488,
			"target":34962
		},
		{
			"buffer":0,
			"byteLength":53220,
			"byteOffset":490708,
			"target":34962
		},
		{
			"buffer":0,
			"byteLength":35480,
			"byteOffset":543928,
			"target":34962
		},
		{
			"buffer":0,
			"byteLength":35480,
			"byteOffset":579408,
			"target":34962
		},
		{
			"buffer":0,
			"byteLength":17740,
			"byteOffset":614888,
			"target":34962
		},
		{
			"buffer":0,
			"byteLength":53220,
			"byteOffset":632628,
			"target":34962
		},
		{
			"buffer":0,
			"byteLength":9636,
			"byteOffset":685848,
			"target":34963
		},
		{
			"buffer":0,
			"byteLength":117060,
			"byteOffset":695484,
			"target":34962
		},
		{
			"buffer":0,
			"byteLength":117060,
			"byteOffset":812544,
			"target":34962
		},
		{
			"buffer":0,
			"byteLength":78040,
			"byteOffset":929604,
			"target":34962
		},
		{
			"buffer":0,
			"byteLength":78040,
			"byteOffset":1007644,
			"target":34962
		},
		{
			"buffer":0,
			"byteLength":39020,
			"byteOffset":1085684,
			"target":34962
		},
		{
			"buffer":0,
			"byteLength":117060,
			"byteOffset":1124704,
			"target":34962
		},
		{
			"buffer":0,
			"byteLength":38220,
			"byteOffset":1241764,
			"target":34963
		},
		{
			"buffer":0,
			"byteLength":516288,
			"byteOffset":1279984,
			"target":34962
		},
		{
			"buffer":0,
			"byteLength":516288,
			"byteOffset":1796272,
			"target":34962
		},
		{
			"buffer":0,
			"byteLength":344192,
			"byteOffset":2312560,
			"target":34962
		},
		{
			"buffer":0,
			"byteLength":344192,
			"byteOffset":2656752,
			"target":34962
		},
		{
			"buffer":0,
			"byteLength":172096,
			"byteOffset":3000944,
			"target":34962
		},
		{
			"buffer":0,
			"byteLength":516288,
			"byteOffset":3173040,
			"target":34962
		},
		{
			"buffer":0,
			"byteLength":221184,
			"byteOffset":3689328,
			"target":34963
		}
	],
	"buffers":[
		{
			"byteLength":3910512,
			"uri":"241126_CAB_Tires_FL.bin"
		}
	]
}
