{
	"asset":{
		"generator":"Khronos glTF Blender I/O v4.2.57",
		"version":"2.0"
	},
	"extensionsUsed":[
		"KHR_materials_clearcoat"
	],
	"scene":0,
	"scenes":[
		{
			"name":"Scene",
			"nodes":[
				0
			]
		}
	],
	"nodes":[
		{
			"mesh":0,
			"name":"VL",
			"translation":[
				0,
				0.2750000059604645,
				0.6499999761581421
			]
		}
	],
	"materials":[
		{
			"doubleSided":true,
			"extensions":{
				"KHR_materials_clearcoat":{
					"clearcoatFactor":0.800000011920929,
					"clearcoatRoughnessFactor":0.5
				}
			},
			"name":"Radkappen",
			"pbrMetallicRoughness":{
				"baseColorFactor":[
					0.031901367008686066,
					0.04373311996459961,
					0.0630054697394371,
					1
				],
				"metallicFactor":0.6000000238418579,
				"roughnessFactor":0.019999999552965164
			}
		},
		{
			"doubleSided":true,
			"extensions":{
				"KHR_materials_clearcoat":{
					"clearcoatFactor":0.75
				}
			},
			"name":"EX_Lack_Akzent-02",
			"pbrMetallicRoughness":{
				"baseColorFactor":[
					0.6939884424209595,
					0.6938414573669434,
					0.6938217282295227,
					1
				],
				"metallicFactor":0.5,
				"roughnessFactor":0.019999999552965164
			}
		},
		{
			"doubleSided":true,
			"name":"Reifen_Felge",
			"pbrMetallicRoughness":{
				"baseColorFactor":[
					0.11600957810878754,
					0.11600957810878754,
					0.11600957810878754,
					1
				],
				"roughnessFactor":0.30000001192092896
			}
		},
		{
			"doubleSided":true,
			"extensions":{
				"KHR_materials_clearcoat":{
					"clearcoatFactor":0.20000000298023224,
					"clearcoatRoughnessFactor":0.5
				}
			},
			"name":"Reifen",
			"pbrMetallicRoughness":{
				"baseColorFactor":[
					0.0037352386862039566,
					0.0037352386862039566,
					0.0037352386862039566,
					1
				],
				"metallicFactor":0
			}
		}
	],
	"meshes":[
		{
			"name":"TIRE_4.002",
			"primitives":[
				{
					"attributes":{
						"POSITION":0,
						"NORMAL":1,
						"TEXCOORD_0":2,
						"TEXCOORD_1":3,
						"COLOR_0":4,
						"COLOR_1":5
					},
					"indices":6,
					"material":0
				},
				{
					"attributes":{
						"POSITION":7,
						"NORMAL":8,
						"TEXCOORD_0":9,
						"TEXCOORD_1":10,
						"COLOR_0":11,
						"COLOR_1":12
					},
					"indices":13,
					"material":1
				},
				{
					"attributes":{
						"POSITION":14,
						"NORMAL":15,
						"TEXCOORD_0":16,
						"TEXCOORD_1":17,
						"COLOR_0":18,
						"COLOR_1":19
					},
					"indices":20,
					"material":2
				},
				{
					"attributes":{
						"POSITION":21,
						"NORMAL":22,
						"TEXCOORD_0":23,
						"TEXCOORD_1":24,
						"COLOR_0":25,
						"COLOR_1":26
					},
					"indices":27,
					"material":3
				}
			]
		}
	],
	"accessors":[
		{
			"bufferView":0,
			"componentType":5126,
			"count":3325,
			"max":[
				0.21736052632331848,
				0.21729430556297302,
				0.1112036481499672
			],
			"min":[
				-0.21672552824020386,
				-0.21679140627384186,
				0.04315991699695587
			],
			"type":"VEC3"
		},
		{
			"bufferView":1,
			"componentType":5126,
			"count":3325,
			"type":"VEC3"
		},
		{
			"bufferView":2,
			"componentType":5126,
			"count":3325,
			"type":"VEC2"
		},
		{
			"bufferView":3,
			"componentType":5126,
			"count":3325,
			"type":"VEC2"
		},
		{
			"bufferView":4,
			"componentType":5121,
			"count":3325,
			"normalized":true,
			"type":"VEC4"
		},
		{
			"bufferView":5,
			"componentType":5126,
			"count":3325,
			"type":"VEC3"
		},
		{
			"bufferView":6,
			"componentType":5123,
			"count":11739,
			"type":"SCALAR"
		},
		{
			"bufferView":7,
			"componentType":5126,
			"count":2091,
			"max":[
				0.17301416397094727,
				0.19248221814632416,
				0.11480185389518738
			],
			"min":[
				-0.1860537976026535,
				-0.13944585621356964,
				0.09541528671979904
			],
			"type":"VEC3"
		},
		{
			"bufferView":8,
			"componentType":5126,
			"count":2091,
			"type":"VEC3"
		},
		{
			"bufferView":9,
			"componentType":5126,
			"count":2091,
			"type":"VEC2"
		},
		{
			"bufferView":10,
			"componentType":5126,
			"count":2091,
			"type":"VEC2"
		},
		{
			"bufferView":11,
			"componentType":5121,
			"count":2091,
			"normalized":true,
			"type":"VEC4"
		},
		{
			"bufferView":12,
			"componentType":5126,
			"count":2091,
			"type":"VEC3"
		},
		{
			"bufferView":13,
			"componentType":5123,
			"count":4818,
			"type":"SCALAR"
		},
		{
			"bufferView":14,
			"componentType":5126,
			"count":3813,
			"max":[
				0.18975841999053955,
				0.18989455699920654,
				0.09208651632070541
			],
			"min":[
				-0.18973615765571594,
				-0.19006776809692383,
				-0.06191350892186165
			],
			"type":"VEC3"
		},
		{
			"bufferView":15,
			"componentType":5126,
			"count":3813,
			"type":"VEC3"
		},
		{
			"bufferView":16,
			"componentType":5126,
			"count":3813,
			"type":"VEC2"
		},
		{
			"bufferView":17,
			"componentType":5126,
			"count":3813,
			"type":"VEC2"
		},
		{
			"bufferView":18,
			"componentType":5121,
			"count":3813,
			"normalized":true,
			"type":"VEC4"
		},
		{
			"bufferView":19,
			"componentType":5126,
			"count":3813,
			"type":"VEC3"
		},
		{
			"bufferView":20,
			"componentType":5123,
			"count":19110,
			"type":"SCALAR"
		},
		{
			"bufferView":21,
			"componentType":5126,
			"count":43024,
			"max":[
				0.3176729381084442,
				0.31773465871810913,
				0.09759611636400223
			],
			"min":[
				-0.31770604848861694,
				-0.31764525175094604,
				-0.10252992063760757
			],
			"type":"VEC3"
		},
		{
			"bufferView":22,
			"componentType":5126,
			"count":43024,
			"type":"VEC3"
		},
		{
			"bufferView":23,
			"componentType":5126,
			"count":43024,
			"type":"VEC2"
		},
		{
			"bufferView":24,
			"componentType":5126,
			"count":43024,
			"type":"VEC2"
		},
		{
			"bufferView":25,
			"componentType":5121,
			"count":43024,
			"normalized":true,
			"type":"VEC4"
		},
		{
			"bufferView":26,
			"componentType":5126,
			"count":43024,
			"type":"VEC3"
		},
		{
			"bufferView":27,
			"componentType":5123,
			"count":110592,
			"type":"SCALAR"
		}
	],
	"bufferViews":[
		{
			"buffer":0,
			"byteLength":39900,
			"byteOffset":0,
			"target":34962
		},
		{
			"buffer":0,
			"byteLength":39900,
			"byteOffset":39900,
			"target":34962
		},
		{
			"buffer":0,
			"byteLength":26600,
			"byteOffset":79800,
			"target":34962
		},
		{
			"buffer":0,
			"byteLength":26600,
			"byteOffset":106400,
			"target":34962
		},
		{
			"buffer":0,
			"byteLength":13300,
			"byteOffset":133000,
			"target":34962
		},
		{
			"buffer":0,
			"byteLength":39900,
			"byteOffset":146300,
			"target":34962
		},
		{
			"buffer":0,
			"byteLength":23478,
			"byteOffset":186200,
			"target":34963
		},
		{
			"buffer":0,
			"byteLength":25092,
			"byteOffset":209680,
			"target":34962
		},
		{
			"buffer":0,
			"byteLength":25092,
			"byteOffset":234772,
			"target":34962
		},
		{
			"buffer":0,
			"byteLength":16728,
			"byteOffset":259864,
			"target":34962
		},
		{
			"buffer":0,
			"byteLength":16728,
			"byteOffset":276592,
			"target":34962
		},
		{
			"buffer":0,
			"byteLength":8364,
			"byteOffset":293320,
			"target":34962
		},
		{
			"buffer":0,
			"byteLength":25092,
			"byteOffset":301684,
			"target":34962
		},
		{
			"buffer":0,
			"byteLength":9636,
			"byteOffset":326776,
			"target":34963
		},
		{
			"buffer":0,
			"byteLength":45756,
			"byteOffset":336412,
			"target":34962
		},
		{
			"buffer":0,
			"byteLength":45756,
			"byteOffset":382168,
			"target":34962
		},
		{
			"buffer":0,
			"byteLength":30504,
			"byteOffset":427924,
			"target":34962
		},
		{
			"buffer":0,
			"byteLength":30504,
			"byteOffset":458428,
			"target":34962
		},
		{
			"buffer":0,
			"byteLength":15252,
			"byteOffset":488932,
			"target":34962
		},
		{
			"buffer":0,
			"byteLength":45756,
			"byteOffset":504184,
			"target":34962
		},
		{
			"buffer":0,
			"byteLength":38220,
			"byteOffset":549940,
			"target":34963
		},
		{
			"buffer":0,
			"byteLength":516288,
			"byteOffset":588160,
			"target":34962
		},
		{
			"buffer":0,
			"byteLength":516288,
			"byteOffset":1104448,
			"target":34962
		},
		{
			"buffer":0,
			"byteLength":344192,
			"byteOffset":1620736,
			"target":34962
		},
		{
			"buffer":0,
			"byteLength":344192,
			"byteOffset":1964928,
			"target":34962
		},
		{
			"buffer":0,
			"byteLength":172096,
			"byteOffset":2309120,
			"target":34962
		},
		{
			"buffer":0,
			"byteLength":516288,
			"byteOffset":2481216,
			"target":34962
		},
		{
			"buffer":0,
			"byteLength":221184,
			"byteOffset":2997504,
			"target":34963
		}
	],
	"buffers":[
		{
			"byteLength":3218688,
			"uri":"241126_CAB_Tires_FR.bin"
		}
	]
}
