{
	"asset":{
		"generator":"Khronos glTF Blender I/O v4.2.57",
		"version":"2.0"
	},
	"extensionsUsed":[
		"KHR_materials_emissive_strength"
	],
	"scene":0,
	"scenes":[
		{
			"name":"Scene",
			"nodes":[
				0
			]
		}
	],
	"nodes":[
		{
			"mesh":0,
			"name":"Door_Switch",
			"rotation":[
				0,
				0.7071068286895752,
				-0.7071068286895752,
				1.3767879636361613e-07
			],
			"scale":[
				0.19999998807907104,
				0.19999998807907104,
				0.19999998807907104
			],
			"translation":[
				1.1872649192810059,
				1.0734481811523438,
				-0.8386126756668091
			]
		}
	],
	"materials":[
		{
			"doubleSided":true,
			"name":"M_Door_Button",
			"pbrMetallicRoughness":{
				"baseColorFactor":[
					0.023448368534445763,
					0.18107745051383972,
					0.054917097091674805,
					1
				],
				"metallicFactor":0,
				"roughnessFactor":0.5
			}
		},
		{
			"doubleSided":true,
			"emissiveFactor":[
				1,
				1,
				1
			],
			"extensions":{
				"KHR_materials_emissive_strength":{
					"emissiveStrength":50
				}
			},
			"name":"M_Light_Door",
			"pbrMetallicRoughness":{
				"baseColorFactor":[
					0,
					0,
					0,
					1
				]
			}
		},
		{
			"doubleSided":true,
			"name":"M_Text_Background",
			"pbrMetallicRoughness":{
				"baseColorFactor":[
					0.800000011920929,
					0.800000011920929,
					0.800000011920929,
					1
				],
				"metallicFactor":0,
				"roughnessFactor":0.5
			}
		},
		{
			"doubleSided":true,
			"name":"M_Text",
			"pbrMetallicRoughness":{
				"baseColorFactor":[
					0.020288245752453804,
					0.10946180671453476,
					0.18116430938243866,
					1
				],
				"metallicFactor":0,
				"roughnessFactor":0.5
			}
		}
	],
	"meshes":[
		{
			"name":"Door_Button",
			"primitives":[
				{
					"attributes":{
						"POSITION":0,
						"NORMAL":1,
						"TEXCOORD_0":2
					},
					"indices":3,
					"material":0
				},
				{
					"attributes":{
						"POSITION":4,
						"NORMAL":5,
						"TEXCOORD_0":6
					},
					"indices":7,
					"material":1
				},
				{
					"attributes":{
						"POSITION":8,
						"NORMAL":9,
						"TEXCOORD_0":10
					},
					"indices":11,
					"material":2
				},
				{
					"attributes":{
						"POSITION":12,
						"NORMAL":13,
						"TEXCOORD_0":14
					},
					"indices":15,
					"material":3
				}
			]
		}
	],
	"accessors":[
		{
			"bufferView":0,
			"componentType":5126,
			"count":960,
			"max":[
				3.804955005645752,
				-0.48250529170036316,
				0.755863606929779
			],
			"min":[
				3.175485372543335,
				-0.6226840019226074,
				0.1218295693397522
			],
			"type":"VEC3"
		},
		{
			"bufferView":1,
			"componentType":5126,
			"count":960,
			"type":"VEC3"
		},
		{
			"bufferView":2,
			"componentType":5126,
			"count":960,
			"type":"VEC2"
		},
		{
			"bufferView":3,
			"componentType":5123,
			"count":2490,
			"type":"SCALAR"
		},
		{
			"bufferView":4,
			"componentType":5126,
			"count":768,
			"max":[
				3.767270088195801,
				-0.48663437366485596,
				0.7123066186904907
			],
			"min":[
				3.213170289993286,
				-0.5307425260543823,
				0.1589455008506775
			],
			"type":"VEC3"
		},
		{
			"bufferView":5,
			"componentType":5126,
			"count":768,
			"type":"VEC3"
		},
		{
			"bufferView":6,
			"componentType":5126,
			"count":768,
			"type":"VEC2"
		},
		{
			"bufferView":7,
			"componentType":5123,
			"count":1536,
			"type":"SCALAR"
		},
		{
			"bufferView":8,
			"componentType":5126,
			"count":64,
			"max":[
				3.696213722229004,
				-0.4838927388191223,
				0.6404249668121338
			],
			"min":[
				3.284226417541504,
				-0.511265218257904,
				0.22934763133525848
			],
			"type":"VEC3"
		},
		{
			"bufferView":9,
			"componentType":5126,
			"count":64,
			"type":"VEC3"
		},
		{
			"bufferView":10,
			"componentType":5126,
			"count":64,
			"type":"VEC2"
		},
		{
			"bufferView":11,
			"componentType":5123,
			"count":186,
			"type":"SCALAR"
		},
		{
			"bufferView":12,
			"componentType":5126,
			"count":1496,
			"max":[
				3.6643948554992676,
				-0.4695141911506653,
				0.4833734631538391
			],
			"min":[
				3.3381447792053223,
				-0.5262901186943054,
				0.3766304552555084
			],
			"type":"VEC3"
		},
		{
			"bufferView":13,
			"componentType":5126,
			"count":1496,
			"type":"VEC3"
		},
		{
			"bufferView":14,
			"componentType":5126,
			"count":1496,
			"type":"VEC2"
		},
		{
			"bufferView":15,
			"componentType":5123,
			"count":3600,
			"type":"SCALAR"
		}
	],
	"bufferViews":[
		{
			"buffer":0,
			"byteLength":11520,
			"byteOffset":0,
			"target":34962
		},
		{
			"buffer":0,
			"byteLength":11520,
			"byteOffset":11520,
			"target":34962
		},
		{
			"buffer":0,
			"byteLength":7680,
			"byteOffset":23040,
			"target":34962
		},
		{
			"buffer":0,
			"byteLength":4980,
			"byteOffset":30720,
			"target":34963
		},
		{
			"buffer":0,
			"byteLength":9216,
			"byteOffset":35700,
			"target":34962
		},
		{
			"buffer":0,
			"byteLength":9216,
			"byteOffset":44916,
			"target":34962
		},
		{
			"buffer":0,
			"byteLength":6144,
			"byteOffset":54132,
			"target":34962
		},
		{
			"buffer":0,
			"byteLength":3072,
			"byteOffset":60276,
			"target":34963
		},
		{
			"buffer":0,
			"byteLength":768,
			"byteOffset":63348,
			"target":34962
		},
		{
			"buffer":0,
			"byteLength":768,
			"byteOffset":64116,
			"target":34962
		},
		{
			"buffer":0,
			"byteLength":512,
			"byteOffset":64884,
			"target":34962
		},
		{
			"buffer":0,
			"byteLength":372,
			"byteOffset":65396,
			"target":34963
		},
		{
			"buffer":0,
			"byteLength":17952,
			"byteOffset":65768,
			"target":34962
		},
		{
			"buffer":0,
			"byteLength":17952,
			"byteOffset":83720,
			"target":34962
		},
		{
			"buffer":0,
			"byteLength":11968,
			"byteOffset":101672,
			"target":34962
		},
		{
			"buffer":0,
			"byteLength":7200,
			"byteOffset":113640,
			"target":34963
		}
	],
	"buffers":[
		{
			"byteLength":120840,
			"uri":"241211_CAB_Door_Button.bin"
		}
	]
}
