{
	"asset":{
		"generator":"Khronos glTF Blender I/O v4.2.57",
		"version":"2.0"
	},
	"scene":0,
	"scenes":[
		{
			"name":"Scene",
			"nodes":[
				0
			]
		}
	],
	"nodes":[
		{
			"mesh":0,
			"name":"Rolling Chassis_min",
			"scale":[
				0.0010000000474974513,
				0.0010000000474974513,
				0.0010000000474974513
			],
			"translation":[
				0,
				0.2750000059604645,
				0
			]
		}
	],
	"materials":[
		{
			"doubleSided":true,
			"name":"Metall",
			"pbrMetallicRoughness":{
				"baseColorFactor":[
					0.800000011920929,
					0.800000011920929,
					0.800000011920929,
					1
				],
				"roughnessFactor":0.25
			}
		}
	],
	"meshes":[
		{
			"name":"COMPOUND.001",
			"primitives":[
				{
					"attributes":{
						"POSITION":0,
						"NORMAL":1,
						"COLOR_0":2,
						"COLOR_1":3
					},
					"indices":4,
					"material":0
				}
			]
		}
	],
	"accessors":[
		{
			"bufferView":0,
			"componentType":5126,
			"count":27392,
			"max":[
				2727,
				372,
				712
			],
			"min":[
				-383,
				-62,
				-723.6553955078125
			],
			"type":"VEC3"
		},
		{
			"bufferView":1,
			"componentType":5126,
			"count":27392,
			"type":"VEC3"
		},
		{
			"bufferView":2,
			"componentType":5121,
			"count":27392,
			"normalized":true,
			"type":"VEC4"
		},
		{
			"bufferView":3,
			"componentType":5126,
			"count":27392,
			"type":"VEC3"
		},
		{
			"bufferView":4,
			"componentType":5123,
			"count":43092,
			"type":"SCALAR"
		}
	],
	"bufferViews":[
		{
			"buffer":0,
			"byteLength":328704,
			"byteOffset":0,
			"target":34962
		},
		{
			"buffer":0,
			"byteLength":328704,
			"byteOffset":328704,
			"target":34962
		},
		{
			"buffer":0,
			"byteLength":109568,
			"byteOffset":657408,
			"target":34962
		},
		{
			"buffer":0,
			"byteLength":328704,
			"byteOffset":766976,
			"target":34962
		},
		{
			"buffer":0,
			"byteLength":86184,
			"byteOffset":1095680,
			"target":34963
		}
	],
	"buffers":[
		{
			"byteLength":1181864,
			"uri":"241210_CAB_Rolling-Chassis.bin"
		}
	]
}
