{
	"asset":{
		"generator":"Khronos glTF Blender I/O v4.2.57",
		"version":"2.0"
	},
	"extensionsUsed":[
		"KHR_materials_clearcoat"
	],
	"scene":0,
	"scenes":[
		{
			"name":"Scene",
			"nodes":[
				0,
				1,
				2,
				3,
				4,
				5,
				6
			]
		}
	],
	"nodes":[
		{
			"mesh":0,
			"name":"T\u00fcr_Stange",
			"scale":[
				0.0010000000474974513,
				0.0010000000474974513,
				0.0010000000474974513
			],
			"translation":[
				1.718000054359436,
				0.1845286339521408,
				-0.590516209602356
			]
		},
		{
			"mesh":1,
			"name":"Unterkante"
		},
		{
			"mesh":2,
			"name":"T\u00fcr"
		},
		{
			"mesh":3,
			"name":"Gest\u00e4nge_oben",
			"scale":[
				0.0010000000474974513,
				0.0010000000474974513,
				0.0010000000474974513
			],
			"translation":[
				1.7150657176971436,
				1.5353820323944092,
				-0.5305094718933105
			]
		},
		{
			"mesh":4,
			"name":"Gest\u00e4nge_unten",
			"scale":[
				0.0010000000474974513,
				0.0010000000474974513,
				0.0010000000474974513
			],
			"translation":[
				1.342708706855774,
				0.1849653571844101,
				-0.5010941624641418
			]
		},
		{
			"mesh":5,
			"name":"Gest\u00e4nge_unten-2",
			"scale":[
				0.0010000000474974513,
				0.0010000000474974513,
				0.0010000000474974513
			],
			"translation":[
				1.718000054359436,
				0.1845286339521408,
				-0.590516209602356
			]
		},
		{
			"mesh":6,
			"name":"Door_Button",
			"rotation":[
				0,
				0.7071068286895752,
				-0.7071068286895752,
				1.1520235432271875e-07
			],
			"scale":[
				0.19999998807907104,
				0.19999998807907104,
				0.19999998807907104
			],
			"translation":[
				1.160700798034668,
				1.0734481811523438,
				-0.7723970413208008
			]
		}
	],
	"animations":[
		{
			"channels":[
				{
					"sampler":0,
					"target":{
						"node":1,
						"path":"translation"
					}
				},
				{
					"sampler":1,
					"target":{
						"node":2,
						"path":"translation"
					}
				},
				{
					"sampler":2,
					"target":{
						"node":3,
						"path":"rotation"
					}
				},
				{
					"sampler":3,
					"target":{
						"node":4,
						"path":"rotation"
					}
				},
				{
					"sampler":4,
					"target":{
						"node":5,
						"path":"rotation"
					}
				},
				{
					"sampler":5,
					"target":{
						"node":6,
						"path":"translation"
					}
				}
			],
			"name":"Door_open",
			"samplers":[
				{
					"input":52,
					"interpolation":"LINEAR",
					"output":53
				},
				{
					"input":52,
					"interpolation":"LINEAR",
					"output":54
				},
				{
					"input":52,
					"interpolation":"LINEAR",
					"output":55
				},
				{
					"input":52,
					"interpolation":"LINEAR",
					"output":56
				},
				{
					"input":52,
					"interpolation":"LINEAR",
					"output":57
				},
				{
					"input":52,
					"interpolation":"LINEAR",
					"output":58
				}
			]
		}
	],
	"materials":[
		{
			"doubleSided":true,
			"name":"EX_Abdeckung.002",
			"pbrMetallicRoughness":{
				"baseColorFactor":[
					0.009999999776482582,
					0.009999999776482582,
					0.009999999776482582,
					1
				],
				"metallicFactor":0.5,
				"roughnessFactor":0.4000000059604645
			}
		},
		{
			"doubleSided":true,
			"extensions":{
				"KHR_materials_clearcoat":{
					"clearcoatFactor":0.800000011920929,
					"clearcoatRoughnessFactor":0.25
				}
			},
			"name":"EX_Lack_Seite",
			"pbrMetallicRoughness":{
				"baseColorFactor":[
					0.031901367008686066,
					0.04373311996459961,
					0.0630054697394371,
					1
				],
				"metallicFactor":0.6000000238418579,
				"roughnessFactor":0.019999999552965164
			}
		},
		{
			"doubleSided":true,
			"name":"EX_Abdeckung",
			"pbrMetallicRoughness":{
				"baseColorFactor":[
					0.009999999776482582,
					0.009999999776482582,
					0.009999999776482582,
					1
				],
				"metallicFactor":0.5,
				"roughnessFactor":0.4000000059604645
			}
		},
		{
			"doubleSided":true,
			"name":"EX_Window"
		},
		{
			"doubleSided":true,
			"name":"EX_Schwarzrand",
			"pbrMetallicRoughness":{
				"baseColorFactor":[
					0,
					0,
					0,
					1
				],
				"metallicFactor":0,
				"roughnessFactor":0.10000000149011612
			}
		},
		{
			"doubleSided":true,
			"name":"M_Text",
			"pbrMetallicRoughness":{
				"baseColorFactor":[
					0.020288245752453804,
					0.10946180671453476,
					0.18116430938243866,
					1
				],
				"metallicFactor":0,
				"roughnessFactor":0.5
			}
		},
		{
			"doubleSided":true,
			"name":"M_Text_Background",
			"pbrMetallicRoughness":{
				"baseColorFactor":[
					0.800000011920929,
					0.800000011920929,
					0.800000011920929,
					1
				],
				"metallicFactor":0,
				"roughnessFactor":0.5
			}
		}
	],
	"meshes":[
		{
			"name":"T\u00fcr_Stange",
			"primitives":[
				{
					"attributes":{
						"POSITION":0,
						"NORMAL":1,
						"COLOR_0":2,
						"COLOR_1":3
					},
					"indices":4,
					"material":0
				}
			]
		},
		{
			"name":"T\u00fcr_Unterkante",
			"primitives":[
				{
					"attributes":{
						"POSITION":5,
						"NORMAL":6,
						"COLOR_0":7,
						"COLOR_1":8
					},
					"indices":9,
					"material":1
				}
			]
		},
		{
			"name":"T\u00fcr_T\u00fcr",
			"primitives":[
				{
					"attributes":{
						"POSITION":10,
						"NORMAL":11,
						"TEXCOORD_0":12,
						"COLOR_0":13,
						"COLOR_1":14
					},
					"indices":15,
					"material":2
				},
				{
					"attributes":{
						"POSITION":16,
						"NORMAL":17,
						"TEXCOORD_0":18,
						"COLOR_0":19,
						"COLOR_1":20
					},
					"indices":21,
					"material":3
				},
				{
					"attributes":{
						"POSITION":22,
						"NORMAL":23,
						"TEXCOORD_0":24,
						"COLOR_0":25,
						"COLOR_1":26
					},
					"indices":27,
					"material":4
				}
			]
		},
		{
			"name":"T\u00fcr_Gest\u00e4nge_oben",
			"primitives":[
				{
					"attributes":{
						"POSITION":28,
						"NORMAL":29,
						"COLOR_0":30,
						"COLOR_1":31
					},
					"indices":32,
					"material":0
				}
			]
		},
		{
			"name":"T\u00fcr_Gest\u00e4nge_unten",
			"primitives":[
				{
					"attributes":{
						"POSITION":33,
						"NORMAL":34,
						"TEXCOORD_0":35,
						"COLOR_0":36,
						"COLOR_1":37
					},
					"indices":38,
					"material":0
				}
			]
		},
		{
			"name":"T\u00fcr_Gest\u00e4nge_unten-2",
			"primitives":[
				{
					"attributes":{
						"POSITION":39,
						"NORMAL":40,
						"COLOR_0":41,
						"COLOR_1":42
					},
					"indices":43,
					"material":0
				}
			]
		},
		{
			"name":"Text",
			"primitives":[
				{
					"attributes":{
						"POSITION":44,
						"NORMAL":45,
						"TEXCOORD_0":46
					},
					"indices":47,
					"material":5
				},
				{
					"attributes":{
						"POSITION":48,
						"NORMAL":49,
						"TEXCOORD_0":50
					},
					"indices":51,
					"material":6
				}
			]
		}
	],
	"accessors":[
		{
			"bufferView":0,
			"componentType":5126,
			"count":2773,
			"max":[
				19.9990234375,
				1515.739990234375,
				83.5721435546875
			],
			"min":[
				-19.9013671875,
				-30.36834716796875,
				-21.20587158203125
			],
			"type":"VEC3"
		},
		{
			"bufferView":1,
			"componentType":5126,
			"count":2773,
			"type":"VEC3"
		},
		{
			"bufferView":2,
			"componentType":5121,
			"count":2773,
			"normalized":true,
			"type":"VEC4"
		},
		{
			"bufferView":3,
			"componentType":5126,
			"count":2773,
			"type":"VEC3"
		},
		{
			"bufferView":4,
			"componentType":5123,
			"count":3435,
			"type":"SCALAR"
		},
		{
			"bufferView":5,
			"componentType":5126,
			"count":632,
			"max":[
				1.6170001029968262,
				0.30109721422195435,
				-0.6367046236991882
			],
			"min":[
				0.703999936580658,
				0.15159635245800018,
				-0.730747640132904
			],
			"type":"VEC3"
		},
		{
			"bufferView":6,
			"componentType":5126,
			"count":632,
			"type":"VEC3"
		},
		{
			"bufferView":7,
			"componentType":5121,
			"count":632,
			"normalized":true,
			"type":"VEC4"
		},
		{
			"bufferView":8,
			"componentType":5126,
			"count":632,
			"type":"VEC3"
		},
		{
			"bufferView":9,
			"componentType":5123,
			"count":1668,
			"type":"SCALAR"
		},
		{
			"bufferView":10,
			"componentType":5126,
			"count":71102,
			"max":[
				1.6897003650665283,
				1.6973305940628052,
				-0.5823437571525574
			],
			"min":[
				0.6316186785697937,
				0.2070678174495697,
				-0.748451828956604
			],
			"type":"VEC3"
		},
		{
			"bufferView":11,
			"componentType":5126,
			"count":71102,
			"type":"VEC3"
		},
		{
			"bufferView":12,
			"componentType":5126,
			"count":71102,
			"type":"VEC2"
		},
		{
			"bufferView":13,
			"componentType":5121,
			"count":71102,
			"normalized":true,
			"type":"VEC4"
		},
		{
			"bufferView":14,
			"componentType":5126,
			"count":71102,
			"type":"VEC3"
		},
		{
			"bufferView":15,
			"componentType":5125,
			"count":85326,
			"type":"SCALAR"
		},
		{
			"bufferView":16,
			"componentType":5126,
			"count":749,
			"max":[
				1.6157007217407227,
				1.6244580745697021,
				-0.6351674199104309
			],
			"min":[
				0.7057003378868103,
				0.30309242010116577,
				-0.7422018051147461
			],
			"type":"VEC3"
		},
		{
			"bufferView":17,
			"componentType":5126,
			"count":749,
			"type":"VEC3"
		},
		{
			"bufferView":18,
			"componentType":5126,
			"count":749,
			"type":"VEC2"
		},
		{
			"bufferView":19,
			"componentType":5121,
			"count":749,
			"normalized":true,
			"type":"VEC4"
		},
		{
			"bufferView":20,
			"componentType":5126,
			"count":749,
			"type":"VEC3"
		},
		{
			"bufferView":21,
			"componentType":5123,
			"count":1047,
			"type":"SCALAR"
		},
		{
			"bufferView":22,
			"componentType":5126,
			"count":162,
			"max":[
				1.6157007217407227,
				1.6244580745697021,
				-0.640199601650238
			],
			"min":[
				0.7057003974914551,
				0.30309242010116577,
				-0.7422018051147461
			],
			"type":"VEC3"
		},
		{
			"bufferView":23,
			"componentType":5126,
			"count":162,
			"type":"VEC3"
		},
		{
			"bufferView":24,
			"componentType":5126,
			"count":162,
			"type":"VEC2"
		},
		{
			"bufferView":25,
			"componentType":5121,
			"count":162,
			"normalized":true,
			"type":"VEC4"
		},
		{
			"bufferView":26,
			"componentType":5126,
			"count":162,
			"type":"VEC3"
		},
		{
			"bufferView":27,
			"componentType":5123,
			"count":303,
			"type":"SCALAR"
		},
		{
			"bufferView":28,
			"componentType":5126,
			"count":12271,
			"max":[
				42.845947265625,
				39.02099609375,
				199.01919555664062
			],
			"min":[
				-572.73681640625,
				-37.995361328125,
				-55.2215576171875
			],
			"type":"VEC3"
		},
		{
			"bufferView":29,
			"componentType":5126,
			"count":12271,
			"type":"VEC3"
		},
		{
			"bufferView":30,
			"componentType":5121,
			"count":12271,
			"normalized":true,
			"type":"VEC4"
		},
		{
			"bufferView":31,
			"componentType":5126,
			"count":12271,
			"type":"VEC3"
		},
		{
			"bufferView":32,
			"componentType":5123,
			"count":15666,
			"type":"SCALAR"
		},
		{
			"bufferView":33,
			"componentType":5126,
			"count":13899,
			"max":[
				14.2843017578125,
				77.03465270996094,
				13.937713623046875
			],
			"min":[
				-585.287109375,
				-10.965349197387695,
				-108.52755737304688
			],
			"type":"VEC3"
		},
		{
			"bufferView":34,
			"componentType":5126,
			"count":13899,
			"type":"VEC3"
		},
		{
			"bufferView":35,
			"componentType":5126,
			"count":13899,
			"type":"VEC2"
		},
		{
			"bufferView":36,
			"componentType":5121,
			"count":13899,
			"normalized":true,
			"type":"VEC4"
		},
		{
			"bufferView":37,
			"componentType":5126,
			"count":13899,
			"type":"VEC3"
		},
		{
			"bufferView":38,
			"componentType":5123,
			"count":17904,
			"type":"SCALAR"
		},
		{
			"bufferView":39,
			"componentType":5126,
			"count":9290,
			"max":[
				37.54248046875,
				24.142333984375,
				196.14483642578125
			],
			"min":[
				-571.268310546875,
				-15.36395263671875,
				-46.46630859375
			],
			"type":"VEC3"
		},
		{
			"bufferView":40,
			"componentType":5126,
			"count":9290,
			"type":"VEC3"
		},
		{
			"bufferView":41,
			"componentType":5121,
			"count":9290,
			"normalized":true,
			"type":"VEC4"
		},
		{
			"bufferView":42,
			"componentType":5126,
			"count":9290,
			"type":"VEC3"
		},
		{
			"bufferView":43,
			"componentType":5123,
			"count":12231,
			"type":"SCALAR"
		},
		{
			"bufferView":44,
			"componentType":5126,
			"count":2894,
			"max":[
				0.8233889937400818,
				0.019999999552965164,
				0.2502557337284088
			],
			"min":[
				-0.7640640735626221,
				-0.019999999552965164,
				-0.2577565014362335
			],
			"type":"VEC3"
		},
		{
			"bufferView":45,
			"componentType":5126,
			"count":2894,
			"type":"VEC3"
		},
		{
			"bufferView":46,
			"componentType":5126,
			"count":2894,
			"type":"VEC2"
		},
		{
			"bufferView":47,
			"componentType":5123,
			"count":8628,
			"type":"SCALAR"
		},
		{
			"bufferView":48,
			"componentType":5126,
			"count":384,
			"max":[
				1.5,
				-0.022425368428230286,
				0.4499998688697815
			],
			"min":[
				-1.5,
				-0.12242641299962997,
				-0.45000022649765015
			],
			"type":"VEC3"
		},
		{
			"bufferView":49,
			"componentType":5126,
			"count":384,
			"type":"VEC3"
		},
		{
			"bufferView":50,
			"componentType":5126,
			"count":384,
			"type":"VEC2"
		},
		{
			"bufferView":51,
			"componentType":5123,
			"count":756,
			"type":"SCALAR"
		},
		{
			"bufferView":52,
			"componentType":5126,
			"count":90,
			"max":[
				3
			],
			"min":[
				0.03333333333333333
			],
			"type":"SCALAR"
		},
		{
			"bufferView":53,
			"componentType":5126,
			"count":90,
			"type":"VEC3"
		},
		{
			"bufferView":54,
			"componentType":5126,
			"count":90,
			"type":"VEC3"
		},
		{
			"bufferView":55,
			"componentType":5126,
			"count":90,
			"type":"VEC4"
		},
		{
			"bufferView":56,
			"componentType":5126,
			"count":90,
			"type":"VEC4"
		},
		{
			"bufferView":57,
			"componentType":5126,
			"count":90,
			"type":"VEC4"
		},
		{
			"bufferView":58,
			"componentType":5126,
			"count":90,
			"type":"VEC3"
		}
	],
	"bufferViews":[
		{
			"buffer":0,
			"byteLength":33276,
			"byteOffset":0,
			"target":34962
		},
		{
			"buffer":0,
			"byteLength":33276,
			"byteOffset":33276,
			"target":34962
		},
		{
			"buffer":0,
			"byteLength":11092,
			"byteOffset":66552,
			"target":34962
		},
		{
			"buffer":0,
			"byteLength":33276,
			"byteOffset":77644,
			"target":34962
		},
		{
			"buffer":0,
			"byteLength":6870,
			"byteOffset":110920,
			"target":34963
		},
		{
			"buffer":0,
			"byteLength":7584,
			"byteOffset":117792,
			"target":34962
		},
		{
			"buffer":0,
			"byteLength":7584,
			"byteOffset":125376,
			"target":34962
		},
		{
			"buffer":0,
			"byteLength":2528,
			"byteOffset":132960,
			"target":34962
		},
		{
			"buffer":0,
			"byteLength":7584,
			"byteOffset":135488,
			"target":34962
		},
		{
			"buffer":0,
			"byteLength":3336,
			"byteOffset":143072,
			"target":34963
		},
		{
			"buffer":0,
			"byteLength":853224,
			"byteOffset":146408,
			"target":34962
		},
		{
			"buffer":0,
			"byteLength":853224,
			"byteOffset":999632,
			"target":34962
		},
		{
			"buffer":0,
			"byteLength":568816,
			"byteOffset":1852856,
			"target":34962
		},
		{
			"buffer":0,
			"byteLength":284408,
			"byteOffset":2421672,
			"target":34962
		},
		{
			"buffer":0,
			"byteLength":853224,
			"byteOffset":2706080,
			"target":34962
		},
		{
			"buffer":0,
			"byteLength":341304,
			"byteOffset":3559304,
			"target":34963
		},
		{
			"buffer":0,
			"byteLength":8988,
			"byteOffset":3900608,
			"target":34962
		},
		{
			"buffer":0,
			"byteLength":8988,
			"byteOffset":3909596,
			"target":34962
		},
		{
			"buffer":0,
			"byteLength":5992,
			"byteOffset":3918584,
			"target":34962
		},
		{
			"buffer":0,
			"byteLength":2996,
			"byteOffset":3924576,
			"target":34962
		},
		{
			"buffer":0,
			"byteLength":8988,
			"byteOffset":3927572,
			"target":34962
		},
		{
			"buffer":0,
			"byteLength":2094,
			"byteOffset":3936560,
			"target":34963
		},
		{
			"buffer":0,
			"byteLength":1944,
			"byteOffset":3938656,
			"target":34962
		},
		{
			"buffer":0,
			"byteLength":1944,
			"byteOffset":3940600,
			"target":34962
		},
		{
			"buffer":0,
			"byteLength":1296,
			"byteOffset":3942544,
			"target":34962
		},
		{
			"buffer":0,
			"byteLength":648,
			"byteOffset":3943840,
			"target":34962
		},
		{
			"buffer":0,
			"byteLength":1944,
			"byteOffset":3944488,
			"target":34962
		},
		{
			"buffer":0,
			"byteLength":606,
			"byteOffset":3946432,
			"target":34963
		},
		{
			"buffer":0,
			"byteLength":147252,
			"byteOffset":3947040,
			"target":34962
		},
		{
			"buffer":0,
			"byteLength":147252,
			"byteOffset":4094292,
			"target":34962
		},
		{
			"buffer":0,
			"byteLength":49084,
			"byteOffset":4241544,
			"target":34962
		},
		{
			"buffer":0,
			"byteLength":147252,
			"byteOffset":4290628,
			"target":34962
		},
		{
			"buffer":0,
			"byteLength":31332,
			"byteOffset":4437880,
			"target":34963
		},
		{
			"buffer":0,
			"byteLength":166788,
			"byteOffset":4469212,
			"target":34962
		},
		{
			"buffer":0,
			"byteLength":166788,
			"byteOffset":4636000,
			"target":34962
		},
		{
			"buffer":0,
			"byteLength":111192,
			"byteOffset":4802788,
			"target":34962
		},
		{
			"buffer":0,
			"byteLength":55596,
			"byteOffset":4913980,
			"target":34962
		},
		{
			"buffer":0,
			"byteLength":166788,
			"byteOffset":4969576,
			"target":34962
		},
		{
			"buffer":0,
			"byteLength":35808,
			"byteOffset":5136364,
			"target":34963
		},
		{
			"buffer":0,
			"byteLength":111480,
			"byteOffset":5172172,
			"target":34962
		},
		{
			"buffer":0,
			"byteLength":111480,
			"byteOffset":5283652,
			"target":34962
		},
		{
			"buffer":0,
			"byteLength":37160,
			"byteOffset":5395132,
			"target":34962
		},
		{
			"buffer":0,
			"byteLength":111480,
			"byteOffset":5432292,
			"target":34962
		},
		{
			"buffer":0,
			"byteLength":24462,
			"byteOffset":5543772,
			"target":34963
		},
		{
			"buffer":0,
			"byteLength":34728,
			"byteOffset":5568236,
			"target":34962
		},
		{
			"buffer":0,
			"byteLength":34728,
			"byteOffset":5602964,
			"target":34962
		},
		{
			"buffer":0,
			"byteLength":23152,
			"byteOffset":5637692,
			"target":34962
		},
		{
			"buffer":0,
			"byteLength":17256,
			"byteOffset":5660844,
			"target":34963
		},
		{
			"buffer":0,
			"byteLength":4608,
			"byteOffset":5678100,
			"target":34962
		},
		{
			"buffer":0,
			"byteLength":4608,
			"byteOffset":5682708,
			"target":34962
		},
		{
			"buffer":0,
			"byteLength":3072,
			"byteOffset":5687316,
			"target":34962
		},
		{
			"buffer":0,
			"byteLength":1512,
			"byteOffset":5690388,
			"target":34963
		},
		{
			"buffer":0,
			"byteLength":360,
			"byteOffset":5691900
		},
		{
			"buffer":0,
			"byteLength":1080,
			"byteOffset":5692260
		},
		{
			"buffer":0,
			"byteLength":1080,
			"byteOffset":5693340
		},
		{
			"buffer":0,
			"byteLength":1440,
			"byteOffset":5694420
		},
		{
			"buffer":0,
			"byteLength":1440,
			"byteOffset":5695860
		},
		{
			"buffer":0,
			"byteLength":1440,
			"byteOffset":5697300
		},
		{
			"buffer":0,
			"byteLength":1080,
			"byteOffset":5698740
		}
	],
	"buffers":[
		{
			"byteLength":5699820,
			"uri":"241206_CAB_Door.bin"
		}
	]
}
